<svg width="61" height="61" viewBox="0 0 61 61" fill="none" xmlns="http://www.w3.org/2000/svg">
<path d="M54.7116 6.42576C50.8489 2.59529 45.7631 0.470825 40.3232 0.470825C34.8833 0.470825 29.7974 2.59529 25.9348 6.42576C22.9412 9.41933 20.9777 13.2176 20.2696 17.3056C20.2052 17.7241 20.1408 18.1425 20.1086 18.561C20.0764 18.9794 20.0442 19.3979 20.012 19.8163C19.9799 20.1382 19.9799 20.4923 19.9799 20.8142V23.5824V24.8378V26.0932V41.1897H35.0764H36.3318H37.5871C37.6193 40.8356 37.6193 40.5138 37.6193 40.1597V37.4236H36.364H23.7459V26.061V23.5824V20.8464C23.7459 20.4923 23.7459 20.1704 23.7781 19.8163C23.8103 19.3979 23.8425 18.9794 23.9069 18.561C23.9713 18.1425 24.0356 17.7241 24.1322 17.3056C24.8082 14.1511 26.4176 11.3185 28.6065 9.09744C31.6 6.10387 35.7524 4.23692 40.3232 4.23692C49.4648 4.23692 56.9004 11.6725 56.9004 20.8142C56.9004 25.385 55.0335 29.5374 52.0399 32.5309C49.8189 34.752 46.9863 36.3292 43.8318 37.0052V37.3592V40.1275C43.8318 40.385 43.8318 40.6103 43.8318 40.8678C47.9197 40.1597 51.718 38.1962 54.7116 35.2026C58.542 31.3721 60.6665 26.2541 60.6665 20.8142C60.6665 15.3743 58.542 10.2562 54.7116 6.42576Z" fill="#F7654A"/>
<path d="M23.7459 23.5502H25.0012H26.2566H37.6193V34.9129V36.1682V37.4236V40.1597C37.6193 40.5137 37.6193 40.8356 37.5871 41.1897C37.5549 41.6082 37.5227 42.0266 37.4583 42.4451C37.3939 42.8635 37.3296 43.282 37.233 43.7004C36.557 46.8549 34.9476 49.6876 32.7587 51.9086C29.7652 54.9021 25.6128 56.7691 21.042 56.7691C11.9004 56.7691 4.46478 49.3335 4.46478 40.1918C4.46478 35.621 6.33173 31.4687 9.32529 28.4751C11.5463 26.2541 14.3789 24.6768 17.5334 24.0009V20.8785C17.5334 20.621 17.5334 20.3957 17.5334 20.1382C13.4455 20.8464 9.64718 22.8099 6.65362 25.8034C2.79097 29.5695 0.666504 34.6876 0.666504 40.1275C0.666504 45.5674 2.79097 50.6532 6.62143 54.5159C10.4519 58.3464 15.5699 60.4708 21.0098 60.4708C26.4497 60.4708 31.5356 58.3464 35.3982 54.5159C39.0034 50.9107 41.0956 46.179 41.321 41.1253C41.321 40.9644 41.321 40.8034 41.3532 40.6425C41.3532 40.5459 41.3532 40.4815 41.3532 40.385C41.3532 40.2884 41.3532 40.224 41.3532 40.1275V37.3592V19.7841H26.2566H25.0012H23.7459C23.7137 20.1382 23.7137 20.4601 23.7137 20.8142L23.7459 23.5502Z" fill="#F7654A"/>
</svg>
